<svg width="67" height="65" viewBox="0 0 67 65" fill="none" xmlns="http://www.w3.org/2000/svg">
<g filter="url(#filter0_f)">
<path d="M61.8 54.776C61.992 54.776 62.184 54.776 62.376 54.776V55.256C61.48 55.384 60.472 55.448 59.352 55.448C58.264 55.448 56.904 55.208 55.272 54.728C53.672 54.248 52.216 53.352 50.904 52.04C48.216 49.352 46.584 45.864 46.008 41.576L43.08 20.216L33.096 42.776C32.2 44.728 31.656 46.36 31.464 47.672H30.984L18.552 20.648L16.44 44.504C16.376 45.048 16.536 45.528 16.92 45.944C17.336 46.36 17.784 46.568 18.264 46.568H19.032V47H9.72V46.52H10.488C11.352 46.52 12.104 46.264 12.744 45.752C13.416 45.208 13.832 44.504 13.992 43.64L17.016 17.432C14.2 11.896 10.824 9.128 6.888 9.128C6.536 9.128 6.168 9.144 5.784 9.176V8.696C6.648 8.472 7.352 8.36 7.896 8.36C8.44 8.36 9.032 8.392 9.672 8.456C10.312 8.488 11.064 8.632 11.928 8.888C12.792 9.144 13.608 9.528 14.376 10.04C15.144 10.52 15.816 11.032 16.392 11.576C16.968 12.088 17.512 12.664 18.024 13.304C18.888 14.456 19.576 15.56 20.088 16.616L31.656 41.672L44.568 12.728H45L49.464 41.144C50.136 45.624 51.576 49.016 53.784 51.32C56.024 53.624 58.696 54.776 61.8 54.776Z" fill="#39DB7E"/>
</g>
<path d="M56.8 54.776C56.992 54.776 57.184 54.776 57.376 54.776V55.256C56.48 55.384 55.472 55.448 54.352 55.448C53.264 55.448 51.904 55.208 50.272 54.728C48.672 54.248 47.216 53.352 45.904 52.04C43.216 49.352 41.584 45.864 41.008 41.576L38.08 20.216L28.096 42.776C27.2 44.728 26.656 46.36 26.464 47.672H25.984L13.552 20.648L11.44 44.504C11.376 45.048 11.536 45.528 11.92 45.944C12.336 46.36 12.784 46.568 13.264 46.568H14.032V47H4.72V46.52H5.488C6.352 46.52 7.104 46.264 7.744 45.752C8.416 45.208 8.832 44.504 8.992 43.64L12.016 17.432C9.2 11.896 5.824 9.128 1.888 9.128C1.536 9.128 1.168 9.144 0.784 9.176V8.696C1.648 8.472 2.352 8.36 2.896 8.36C3.44 8.36 4.032 8.392 4.672 8.456C5.312 8.488 6.064 8.632 6.928 8.888C7.792 9.144 8.608 9.528 9.376 10.04C10.144 10.52 10.816 11.032 11.392 11.576C11.968 12.088 12.512 12.664 13.024 13.304C13.888 14.456 14.576 15.56 15.088 16.616L26.656 41.672L39.568 12.728H40L44.464 41.144C45.136 45.624 46.576 49.016 48.784 51.32C51.024 53.624 53.696 54.776 56.8 54.776Z" fill="#27AE60"/>
<defs>
<filter id="filter0_f" x="1.78418" y="4.35999" width="64.592" height="55.088" filterUnits="userSpaceOnUse" color-interpolation-filters="sRGB">
<feFlood flood-opacity="0" result="BackgroundImageFix"/>
<feBlend mode="normal" in="SourceGraphic" in2="BackgroundImageFix" result="shape"/>
<feGaussianBlur stdDeviation="2" result="effect1_foregroundBlur"/>
</filter>
</defs>
</svg>
