<svg width="18" height="16" viewBox="0 0 18 16" fill="currentColor" xmlns="http://www.w3.org/2000/svg">
<path fill="currentColor"  d="M18 5.05263C18.0001 4.8998 17.9556 4.74985 17.8713 4.61895L15.4332 0.816842C15.2726 0.568287 15.0463 0.362587 14.7761 0.21953C14.506 0.0764729 14.201 0.000872027 13.8906 0H4.1094C3.4812 0 2.8899 0.313263 2.5668 0.817684L0.1287 4.61895C0.0444146 4.74985 -8.45023e-05 4.8998 1.20468e-07 5.05263C1.20468e-07 5.89895 0.3474 6.66442 0.9 7.25726V15.1579C0.9 15.3812 0.994821 15.5954 1.1636 15.7534C1.33239 15.9113 1.56131 16 1.8 16H9C9.23869 16 9.46761 15.9113 9.6364 15.7534C9.80518 15.5954 9.9 15.3812 9.9 15.1579V10.9474H13.5V15.1579C13.5 15.3812 13.5948 15.5954 13.7636 15.7534C13.9324 15.9113 14.1613 16 14.4 16H16.2C16.4387 16 16.6676 15.9113 16.8364 15.7534C17.0052 15.5954 17.1 15.3812 17.1 15.1579V7.25726C17.6526 6.66442 18 5.89895 18 5.05263ZM16.1856 5.264C16.1302 5.67066 15.9184 6.04451 15.5897 6.3156C15.2611 6.58669 14.8381 6.73644 14.4 6.73684C13.4073 6.73684 12.6 5.98147 12.6 5.05263C12.6 4.99537 12.5775 4.94484 12.5649 4.89095L12.5829 4.88758L11.898 1.68421H13.8906L16.1856 5.264ZM7.2063 5.10737L7.9371 1.68421H10.062L10.7937 5.10737C10.7622 6.01095 9.972 6.73684 9 6.73684C8.028 6.73684 7.2378 6.01095 7.2063 5.10737ZM4.1094 1.68421H6.102L5.418 4.88758L5.436 4.89095C5.4225 4.94484 5.4 4.99537 5.4 5.05263C5.4 5.98147 4.5927 6.73684 3.6 6.73684C3.16187 6.73644 2.73891 6.58669 2.41025 6.3156C2.0816 6.04451 1.86977 5.67066 1.8144 5.264L4.1094 1.68421ZM7.2 11.7895H3.6V9.26316H7.2V11.7895Z"/>
</svg>
