<svg width="18" height="18" viewBox="0 0 18 18" fill="currentColor" xmlns="http://www.w3.org/2000/svg">
    <path fill="currentColor"  d="M11.5 12.4584C11.7542 12.4584 11.9979 12.3574 12.1776 12.1777C12.3574 11.9979 12.4583 11.7542 12.4583 11.5V5.75002C12.4583 5.49585 12.3574 5.2521 12.1776 5.07238C11.9979 4.89265 11.7542 4.79169 11.5 4.79169H5.74999C5.49582 4.79169 5.25207 4.89265 5.07235 5.07238C4.89262 5.2521 4.79166 5.49585 4.79166 5.75002V11.5C4.79166 11.7542 4.89262 11.9979 5.07235 12.1777C5.25207 12.3574 5.49582 12.4584 5.74999 12.4584H11.5Z"
          />
    <path fill="currentColor"  d="M1.91667 12.4583H2.875V4.79167C2.875 4.28333 3.07693 3.79582 3.43638 3.43638C3.79582 3.07693 4.28333 2.875 4.79167 2.875H12.4583V1.91667C12.4583 1.40833 12.2564 0.920823 11.897 0.561379C11.5375 0.201934 11.05 0 10.5417 0H1.91667C1.40833 0 0.920823 0.201934 0.561379 0.561379C0.201934 0.920823 0 1.40833 0 1.91667V10.5417C0 11.05 0.201934 11.5375 0.561379 11.897C0.920823 12.2564 1.40833 12.4583 1.91667 12.4583ZM4.79167 15.3333C4.79167 15.8417 4.9936 16.3292 5.35305 16.6886C5.71249 17.0481 6.2 17.25 6.70833 17.25H15.3333C15.8417 17.25 16.3292 17.0481 16.6886 16.6886C17.0481 16.3292 17.25 15.8417 17.25 15.3333V6.70833C17.25 6.2 17.0481 5.71249 16.6886 5.35305C16.3292 4.9936 15.8417 4.79167 15.3333 4.79167H14.375V12.4583C14.375 12.9667 14.1731 13.4542 13.8136 13.8136C13.4542 14.1731 12.9667 14.375 12.4583 14.375H4.79167V15.3333Z"
          />
</svg>
