<svg width="17" height="19" viewBox="0 0 17 19" fill="currentColor" xmlns="http://www.w3.org/2000/svg">
<path fill="currentColor"  d="M7.53643 13.753C8.0832 14.1877 8.85765 14.1874 9.40413 13.7524L16.1372 8.39228L16.3637 8.21293C17.1211 7.61319 17.1223 6.46433 16.3662 5.86298L9.40421 0.326019C8.85765 -0.108673 8.08341 -0.108673 7.53684 0.326019L0.570348 5.86658C-0.184326 6.46678 -0.184814 7.61289 0.569348 8.21374L0.793439 8.39228L7.53643 13.753Z" />
<path fill="currentColor"  fill-rule="evenodd" clip-rule="evenodd" d="M9.39353 16.4587C8.84705 16.8934 8.07295 16.8934 7.52639 16.4589L1.53122 11.6927C1.11951 11.3654 0.519685 11.4378 0.197648 11.8536C-0.122867 12.2675 -0.0453203 12.8632 0.370476 13.1812L7.55766 18.6783C8.09545 19.0896 8.84214 19.0897 9.38001 18.6785L16.5638 13.1861C16.9831 12.8655 17.0611 12.2647 16.7375 11.8476C16.4128 11.4291 15.8088 11.3566 15.3942 11.6863L9.39353 16.4587Z" />
</svg>
