<svg width="16" height="13" viewBox="0 0 16 13" fill="currentColor" xmlns="http://www.w3.org/2000/svg">
    <path d="M2.5 10H0.5C0.367392 10 0.240215 10.0527 0.146447 10.1464C0.0526784 10.2402 0 10.3674 0 10.5L0 12.5C0 12.6326 0.0526784 12.7598 0.146447 12.8536C0.240215 12.9473 0.367392 13 0.5 13H2.5C2.63261 13 2.75979 12.9473 2.85355 12.8536C2.94732 12.7598 3 12.6326 3 12.5V10.5C3 10.3674 2.94732 10.2402 2.85355 10.1464C2.75979 10.0527 2.63261 10 2.5 10ZM2.5 0H0.5C0.367392 0 0.240215 0.0526784 0.146447 0.146447C0.0526784 0.240215 0 0.367392 0 0.5L0 2.5C0 2.63261 0.0526784 2.75979 0.146447 2.85355C0.240215 2.94732 0.367392 3 0.5 3H2.5C2.63261 3 2.75979 2.94732 2.85355 2.85355C2.94732 2.75979 3 2.63261 3 2.5V0.5C3 0.367392 2.94732 0.240215 2.85355 0.146447C2.75979 0.0526784 2.63261 0 2.5 0ZM2.5 5H0.5C0.367392 5 0.240215 5.05268 0.146447 5.14645C0.0526784 5.24021 0 5.36739 0 5.5L0 7.5C0 7.63261 0.0526784 7.75979 0.146447 7.85355C0.240215 7.94732 0.367392 8 0.5 8H2.5C2.63261 8 2.75979 7.94732 2.85355 7.85355C2.94732 7.75979 3 7.63261 3 7.5V5.5C3 5.36739 2.94732 5.24021 2.85355 5.14645C2.75979 5.05268 2.63261 5 2.5 5ZM15.5 10.5H5.5C5.36739 10.5 5.24021 10.5527 5.14645 10.6464C5.05268 10.7402 5 10.8674 5 11V12C5 12.1326 5.05268 12.2598 5.14645 12.3536C5.24021 12.4473 5.36739 12.5 5.5 12.5H15.5C15.6326 12.5 15.7598 12.4473 15.8536 12.3536C15.9473 12.2598 16 12.1326 16 12V11C16 10.8674 15.9473 10.7402 15.8536 10.6464C15.7598 10.5527 15.6326 10.5 15.5 10.5ZM15.5 0.5H5.5C5.36739 0.5 5.24021 0.552679 5.14645 0.646447C5.05268 0.740215 5 0.867392 5 1V2C5 2.13261 5.05268 2.25979 5.14645 2.35355C5.24021 2.44732 5.36739 2.5 5.5 2.5H15.5C15.6326 2.5 15.7598 2.44732 15.8536 2.35355C15.9473 2.25979 16 2.13261 16 2V1C16 0.867392 15.9473 0.740215 15.8536 0.646447C15.7598 0.552679 15.6326 0.5 15.5 0.5ZM15.5 5.5H5.5C5.36739 5.5 5.24021 5.55268 5.14645 5.64645C5.05268 5.74021 5 5.86739 5 6V7C5 7.13261 5.05268 7.25979 5.14645 7.35355C5.24021 7.44732 5.36739 7.5 5.5 7.5H15.5C15.6326 7.5 15.7598 7.44732 15.8536 7.35355C15.9473 7.25979 16 7.13261 16 7V6C16 5.86739 15.9473 5.74021 15.8536 5.64645C15.7598 5.55268 15.6326 5.5 15.5 5.5Z"
          />
</svg>
