<svg width="18" height="14" viewBox="0 0 18 14" fill="currentColor" xmlns="http://www.w3.org/2000/svg">
    <path fill="currentColor"
          d="M7.33317 12.833V1.16634C7.33317 0.706104 6.96007 0.333008 6.49984 0.333008H1.49984C1.0396 0.333008 0.666504 0.706104 0.666504 1.16634V12.833C0.666504 13.2932 1.0396 13.6663 1.49984 13.6663H6.49984C6.96007 13.6663 7.33317 13.2932 7.33317 12.833ZM9.83317 7.83301H11.4998C11.9601 7.83301 12.3332 8.2061 12.3332 8.66634V12.833C12.3332 13.2932 11.9601 13.6663 11.4998 13.6663H9.83317C9.37293 13.6663 8.99984 13.2932 8.99984 12.833V8.66634C8.99984 8.2061 9.37293 7.83301 9.83317 7.83301ZM16.4998 7.83301H14.8332C14.3729 7.83301 13.9998 8.2061 13.9998 8.66634V12.833C13.9998 13.2932 14.3729 13.6663 14.8332 13.6663H16.4998C16.9601 13.6663 17.3332 13.2932 17.3332 12.833V8.66634C17.3332 8.2061 16.9601 7.83301 16.4998 7.83301ZM9.83317 0.333008H16.4998C16.9601 0.333008 17.3332 0.706104 17.3332 1.16634V5.33301C17.3332 5.79325 16.9601 6.16634 16.4998 6.16634H9.83317C9.37293 6.16634 8.99984 5.79325 8.99984 5.33301V1.16634C8.99984 0.706104 9.37293 0.333008 9.83317 0.333008Z"/>
</svg>
