<svg width="90" height="15" viewBox="0 0 90 15" fill="currentColor" xmlns="http://www.w3.org/2000/svg">
    <path d="M12.132 1.49L7.434 14H5.058L0.342 1.49H2.538L6.246 11.894L9.972 1.49H12.132ZM20.112 3.92C20.892 3.92 21.588 4.082 22.2 4.406C22.824 4.73 23.31 5.21 23.658 5.846C24.006 6.482 24.18 7.25 24.18 8.15V14H22.146V8.456C22.146 7.568 21.924 6.89 21.48 6.422C21.036 5.942 20.43 5.702 19.662 5.702C18.894 5.702 18.282 5.942 17.826 6.422C17.382 6.89 17.16 7.568 17.16 8.456V14H15.108V4.082H17.16V5.216C17.496 4.808 17.922 4.49 18.438 4.262C18.966 4.034 19.524 3.92 20.112 3.92ZM27.3735 7.718C27.3735 6.494 27.6555 5.396 28.2195 4.424C28.7955 3.452 29.5695 2.696 30.5415 2.156C31.5255 1.604 32.5995 1.328 33.7635 1.328C35.0955 1.328 36.2775 1.658 37.3095 2.318C38.3535 2.966 39.1095 3.89 39.5775 5.09H37.1115C36.7875 4.43 36.3375 3.938 35.7615 3.614C35.1855 3.29 34.5195 3.128 33.7635 3.128C32.9355 3.128 32.1975 3.314 31.5495 3.686C30.9015 4.058 30.3915 4.592 30.0195 5.288C29.6595 5.984 29.4795 6.794 29.4795 7.718C29.4795 8.642 29.6595 9.452 30.0195 10.148C30.3915 10.844 30.9015 11.384 31.5495 11.768C32.1975 12.14 32.9355 12.326 33.7635 12.326C34.5195 12.326 35.1855 12.164 35.7615 11.84C36.3375 11.516 36.7875 11.024 37.1115 10.364H39.5775C39.1095 11.564 38.3535 12.488 37.3095 13.136C36.2775 13.784 35.0955 14.108 33.7635 14.108C32.5875 14.108 31.5135 13.838 30.5415 13.298C29.5695 12.746 28.7955 11.984 28.2195 11.012C27.6555 10.04 27.3735 8.942 27.3735 7.718ZM48.3694 3.92C49.1254 3.92 49.7974 4.082 50.3854 4.406C50.9854 4.73 51.4534 5.21 51.7894 5.846C52.1374 6.482 52.3114 7.25 52.3114 8.15V14H50.2774V8.456C50.2774 7.568 50.0554 6.89 49.6114 6.422C49.1674 5.942 48.5614 5.702 47.7934 5.702C47.0254 5.702 46.4134 5.942 45.9574 6.422C45.5134 6.89 45.2914 7.568 45.2914 8.456V14H43.2394V0.68H45.2914V5.234C45.6394 4.814 46.0774 4.49 46.6054 4.262C47.1454 4.034 47.7334 3.92 48.3694 3.92ZM65.2788 8.798C65.2788 9.17 65.2548 9.506 65.2068 9.806H57.6288C57.6888 10.598 57.9828 11.234 58.5108 11.714C59.0388 12.194 59.6868 12.434 60.4548 12.434C61.5588 12.434 62.3388 11.972 62.7948 11.048H65.0088C64.7088 11.96 64.1628 12.71 63.3708 13.298C62.5908 13.874 61.6188 14.162 60.4548 14.162C59.5068 14.162 58.6548 13.952 57.8988 13.532C57.1548 13.1 56.5668 12.5 56.1348 11.732C55.7148 10.952 55.5048 10.052 55.5048 9.032C55.5048 8.012 55.7088 7.118 56.1168 6.35C56.5368 5.57 57.1188 4.97 57.8628 4.55C58.6188 4.13 59.4828 3.92 60.4548 3.92C61.3908 3.92 62.2248 4.124 62.9568 4.532C63.6888 4.94 64.2588 5.516 64.6668 6.26C65.0748 6.992 65.2788 7.838 65.2788 8.798ZM63.1368 8.15C63.1248 7.394 62.8548 6.788 62.3268 6.332C61.7988 5.876 61.1448 5.648 60.3648 5.648C59.6568 5.648 59.0508 5.876 58.5468 6.332C58.0428 6.776 57.7428 7.382 57.6468 8.15H63.1368ZM67.8742 9.032C67.8742 8.012 68.0782 7.118 68.4862 6.35C68.9062 5.57 69.4822 4.97 70.2142 4.55C70.9462 4.13 71.7862 3.92 72.7342 3.92C73.9342 3.92 74.9242 4.208 75.7042 4.784C76.4962 5.348 77.0302 6.158 77.3062 7.214H75.0922C74.9122 6.722 74.6242 6.338 74.2282 6.062C73.8322 5.786 73.3342 5.648 72.7342 5.648C71.8942 5.648 71.2222 5.948 70.7182 6.548C70.2262 7.136 69.9802 7.964 69.9802 9.032C69.9802 10.1 70.2262 10.934 70.7182 11.534C71.2222 12.134 71.8942 12.434 72.7342 12.434C73.9222 12.434 74.7082 11.912 75.0922 10.868H77.3062C77.0182 11.876 76.4782 12.68 75.6862 13.28C74.8942 13.868 73.9102 14.162 72.7342 14.162C71.7862 14.162 70.9462 13.952 70.2142 13.532C69.4822 13.1 68.9062 12.5 68.4862 11.732C68.0782 10.952 67.8742 10.052 67.8742 9.032ZM84.5352 9.05L89.1072 14H86.3352L82.6632 9.734V14H80.6112V0.68H82.6632V8.42L86.2632 4.082H89.1072L84.5352 9.05Z"
          fill="currentColor" />
</svg>
