<svg width="15" height="14" viewBox="0 0 15 14" fill="currentColor" xmlns="http://www.w3.org/2000/svg">
    <path fill="currentColor"  d="M4.1543 13.537C4.90006 13.537 5.50461 12.8937 5.50461 12.1C5.50461 11.3064 4.90006 10.663 4.1543 10.663C3.40855 10.663 2.80399 11.3064 2.80399 12.1C2.80399 12.8937 3.40855 13.537 4.1543 13.537Z"
          />
    <path fill="currentColor"  d="M9.80644 13.633C10.56 13.633 11.1708 12.9682 11.1708 12.148C11.1708 11.3279 10.56 10.663 9.80644 10.663C9.0529 10.663 8.44203 11.3279 8.44203 12.148C8.44203 12.9682 9.0529 13.633 9.80644 13.633Z"
          />
    <path fill="currentColor"  fill-rule="evenodd" clip-rule="evenodd"
          d="M13.7831 0C13.1094 0 12.5644 0.599 12.5644 1.338L12.4027 2.681H0.508363C0.209547 2.681 0 2.968 0 3.335C0 3.474 0.00939673 3.605 0.0676564 3.71L1.2056 9.164C1.24319 9.336 1.36347 9.463 1.51663 9.533C1.59078 9.58474 1.67701 9.61348 1.76565 9.616H11.5993L11.4358 10.709H2.39429C2.09453 10.709 1.92351 10.765 1.92351 11.132C1.92351 11.499 2.09453 11.606 2.39429 11.606L12.5334 11.607L13.6234 2.659C13.6769 2.666 13.7277 2.677 13.7831 2.677C14.455 2.677 15 2.077 15 1.339C15 0.599 14.454 0 13.7831 0ZM11.962 5.772H10.3214V3.631H12.274L11.962 5.772ZM2.02406 8.657L1.7337 6.622H3.78406V8.657H2.02406ZM7.47322 3.632H9.39673V5.679H7.47322V3.632ZM6.59181 5.71H4.63917V3.616H6.59181V5.71ZM3.77279 5.7H1.70833L1.41327 3.634H3.77373L3.77279 5.7ZM4.6542 6.632H6.59181V8.71H4.6542V6.632ZM7.47322 6.616H9.41082V8.71H7.47322V6.616ZM10.2922 8.694V6.647H12.0833L11.8117 8.694H10.2922Z"
          />
</svg>
