<svg width="20" height="20" viewBox="0 0 20 20" fill="currentColor" xmlns="http://www.w3.org/2000/svg">
<path fill="currentColor"  fill-rule="evenodd" clip-rule="evenodd" d="M8.92061 2.9319C8.362 2.9319 7.88676 3.32009 7.75336 3.84329H12.2389C12.1055 3.32009 11.6303 2.9319 11.0717 2.9319H8.92061ZM13.5062 3.84322H15.1571C16.9079 3.84322 18.3337 5.28625 18.3337 7.05839C18.3337 7.05839 18.2836 7.8086 18.267 8.85332C18.2653 8.93602 18.2253 9.01703 18.1594 9.06598C17.7584 9.36218 17.3915 9.6069 17.3582 9.62378C15.9741 10.552 14.3658 11.2052 12.6525 11.5301C12.5408 11.552 12.4307 11.4938 12.374 11.3942C11.8938 10.5622 10.9967 10.0204 9.99616 10.0204C9.00233 10.0204 8.09687 10.5563 7.60246 11.3892C7.54493 11.4871 7.43654 11.5436 7.32565 11.5225C5.62647 11.1968 4.01817 10.5445 2.64248 9.63222L1.84208 9.07526C1.77538 9.03307 1.73369 8.95712 1.73369 8.87273C1.70868 8.44235 1.66699 7.05839 1.66699 7.05839C1.66699 5.28625 3.09271 3.84322 4.84358 3.84322H6.48607C6.64448 2.6196 7.66999 1.66602 8.92062 1.66602H11.0717C12.3223 1.66602 13.3478 2.6196 13.5062 3.84322ZM18.0502 10.6788L18.0168 10.6957C16.3326 11.8265 14.3066 12.5775 12.1806 12.8897C11.8804 12.9319 11.5803 12.7378 11.4969 12.434C11.3135 11.7421 10.7215 11.2864 10.0128 11.2864H10.0045H9.98781C9.27912 11.2864 8.68716 11.7421 8.50374 12.434C8.42036 12.7378 8.12021 12.9319 7.82006 12.8897C5.694 12.5775 3.66798 11.8265 1.98381 10.6957C1.97547 10.6872 1.8921 10.6366 1.8254 10.6788C1.75036 10.721 1.75036 10.8222 1.75036 10.8222L1.80872 15.126C1.80872 16.8982 3.2261 18.3328 4.97697 18.3328H15.0153C16.7662 18.3328 18.1836 16.8982 18.1836 15.126L18.2503 10.8222C18.2503 10.8222 18.2503 10.721 18.1752 10.6788C18.1335 10.6535 18.0835 10.6619 18.0502 10.6788ZM10.6215 14.2146C10.6215 14.569 10.3463 14.8475 9.99616 14.8475C9.65432 14.8475 9.37084 14.569 9.37084 14.2146V13.126C9.37084 12.78 9.65432 12.4931 9.99616 12.4931C10.3463 12.4931 10.6215 12.78 10.6215 13.126V14.2146Z"/>
</svg>
