<svg width="16" height="20" viewBox="0 0 16 20" fill="currentColor" xmlns="http://www.w3.org/2000/svg">
    <path fill="currentColor"  d="M14 2.5H10.6667C10.6667 1.12109 9.47083 0 8 0C6.52917 0 5.33333 1.12109 5.33333 2.5H2C0.895833 2.5 0 3.33984 0 4.375V18.125C0 19.1602 0.895833 20 2 20H14C15.1042 20 16 19.1602 16 18.125V4.375C16 3.33984 15.1042 2.5 14 2.5ZM4 16.5625C3.44583 16.5625 3 16.1445 3 15.625C3 15.1055 3.44583 14.6875 4 14.6875C4.55417 14.6875 5 15.1055 5 15.625C5 16.1445 4.55417 16.5625 4 16.5625ZM4 12.8125C3.44583 12.8125 3 12.3945 3 11.875C3 11.3555 3.44583 10.9375 4 10.9375C4.55417 10.9375 5 11.3555 5 11.875C5 12.3945 4.55417 12.8125 4 12.8125ZM4 9.0625C3.44583 9.0625 3 8.64453 3 8.125C3 7.60547 3.44583 7.1875 4 7.1875C4.55417 7.1875 5 7.60547 5 8.125C5 8.64453 4.55417 9.0625 4 9.0625ZM8 1.5625C8.55417 1.5625 9 1.98047 9 2.5C9 3.01953 8.55417 3.4375 8 3.4375C7.44583 3.4375 7 3.01953 7 2.5C7 1.98047 7.44583 1.5625 8 1.5625ZM13.3333 15.9375C13.3333 16.1094 13.1833 16.25 13 16.25H7C6.81667 16.25 6.66667 16.1094 6.66667 15.9375V15.3125C6.66667 15.1406 6.81667 15 7 15H13C13.1833 15 13.3333 15.1406 13.3333 15.3125V15.9375ZM13.3333 12.1875C13.3333 12.3594 13.1833 12.5 13 12.5H7C6.81667 12.5 6.66667 12.3594 6.66667 12.1875V11.5625C6.66667 11.3906 6.81667 11.25 7 11.25H13C13.1833 11.25 13.3333 11.3906 13.3333 11.5625V12.1875ZM13.3333 8.4375C13.3333 8.60938 13.1833 8.75 13 8.75H7C6.81667 8.75 6.66667 8.60938 6.66667 8.4375V7.8125C6.66667 7.64062 6.81667 7.5 7 7.5H13C13.1833 7.5 13.3333 7.64062 13.3333 7.8125V8.4375Z"
          />
</svg>
