<svg width="16" height="16" viewBox="0 0 16 16" fill="currentColor" xmlns="http://www.w3.org/2000/svg">
<path fill="currentColor"  fill-rule="evenodd" clip-rule="evenodd" d="M15.76 4.09598L15.6356 3.89598C15.4751 3.65413 15.2487 3.45313 14.9778 3.31199L9.01333 0.215999C8.74325 0.0749969 8.43668 0.000498668 8.12444 0H7.86667C7.55444 0.000498668 7.24786 0.0749969 6.97778 0.215999L1.01333 3.31999C0.743977 3.46019 0.520227 3.66156 0.364444 3.90398L0.24 4.10398C0.0833302 4.34705 0.000554078 4.62297 0 4.90398V11.104C0.000554078 11.385 0.0833302 11.6609 0.24 11.9039L0.364444 12.1039C0.524257 12.3436 0.747099 12.5441 1.01333 12.6879L6.98667 15.7839C7.25538 15.9279 7.56287 16.0026 7.87556 15.9999H8.12444C8.43668 15.9994 8.74325 15.9249 9.01333 15.7839L14.9778 12.6799C15.2498 12.5429 15.4744 12.3408 15.6267 12.0959L15.76 11.8959C15.9148 11.6522 15.9974 11.3767 16 11.096V4.89598C15.9994 4.61497 15.9167 4.33905 15.76 4.09598ZM7.86699 1.59896H8.12477L13.3337 4.30295L8.00033 7.07093L2.66699 4.30295L7.86699 1.59896ZM8.88867 14.0012L14.0887 11.2972L14.222 11.0972V5.68924L8.88867 8.46522V14.0012Z"/>
</svg>
