<svg width="15" height="15" viewBox="0 0 15 15" fill="currentColor" xmlns="http://www.w3.org/2000/svg">
<path fill="currentColor"  d="M13.2679 4.99362L12.6489 4.375L10.6413 6.38138L8.63366 4.375L8.01465 4.99362L10.0223 7L8.01465 9.00594L8.63409 9.625L10.6413 7.61862L12.6493 9.625L13.2679 9.00681L11.2603 7L13.2679 4.99362Z"/>
<path fill="currentColor"  d="M1.88531 1.75C1.6531 1.75 1.4304 1.84219 1.26621 2.00628C1.10201 2.17038 1.00977 2.39294 1.00977 2.625V4.01188C1.00973 4.12685 1.03237 4.2407 1.07639 4.34692C1.12041 4.45314 1.18494 4.54965 1.2663 4.63094L4.51193 7.875V11.375C4.51193 11.6071 4.60418 11.8296 4.76837 11.9937C4.93257 12.1578 5.15527 12.25 5.38747 12.25H7.13856C7.37077 12.25 7.59346 12.1578 7.75766 11.9937C7.92185 11.8296 8.0141 11.6071 8.0141 11.375V10.5H7.13856V11.375H5.38747V7.51188L5.13094 7.25594L1.88531 4.01231V2.625H10.6407V3.5H11.5163V2.625C11.5163 2.39294 11.424 2.17038 11.2598 2.00628C11.0956 1.84219 10.8729 1.75 10.6407 1.75H1.88531Z"/>
</svg>
