<svg width="16" height="16" viewBox="0 0 16 16" fill="currentColor" xmlns="http://www.w3.org/2000/svg">
<path  fill="currentColor" d="M0.387891 4.62586L7.66727 7.92805C7.87977 8.02461 8.12008 8.02461 8.33258 7.92805L15.612 4.62586C16.1291 4.39117 16.1291 3.60961 15.612 3.37492L8.33289 0.0724208C8.22848 0.0246992 8.11503 0 8.00023 0C7.88544 0 7.77199 0.0246992 7.66758 0.0724208L0.387891 3.37461C-0.129297 3.6093 -0.129297 4.39117 0.387891 4.62586ZM15.6123 7.38461L13.797 6.5618L8.7457 8.85148C8.50945 8.95867 8.25852 9.01305 8.00008 9.01305C7.74164 9.01305 7.49102 8.95867 7.25445 8.85148L2.20352 6.5618L0.387891 7.38461C-0.129297 7.61898 -0.129297 8.40023 0.387891 8.63461L7.66727 11.9343C7.87977 12.0305 8.12008 12.0305 8.33258 11.9343L15.6123 8.63461C16.1295 8.40023 16.1295 7.61898 15.6123 7.38461ZM15.6123 11.3784L13.8038 10.5587L8.7457 12.8515C8.50945 12.9587 8.25852 13.013 8.00008 13.013C7.74164 13.013 7.49102 12.9587 7.25445 12.8515L2.19664 10.5587L0.387891 11.3784C-0.129297 11.6127 -0.129297 12.394 0.387891 12.6284L7.66727 15.928C7.87977 16.0243 8.12008 16.0243 8.33258 15.928L15.6123 12.6284C16.1295 12.394 16.1295 11.6127 15.6123 11.3784Z"/>
</svg>
