<svg width="15" height="17" viewBox="0 0 15 17" fill="currentColor" xmlns="http://www.w3.org/2000/svg">
<path fill="currentColor" fill-rule="evenodd" clip-rule="evenodd" d="M4.00833 0H10.9925C13.5667 0 15 1.48333 15 4.025V12.6333C15 15.2167 13.5667 16.6667 10.9925 16.6667H4.00833C1.475 16.6667 0 15.2167 0 12.6333V4.025C0 1.48333 1.475 0 4.00833 0ZM4.23333 3.88327V3.87493H6.72416C7.08333 3.87493 7.37499 4.1666 7.37499 4.5241C7.37499 4.8916 7.08333 5.18327 6.72416 5.18327H4.23333C3.87416 5.18327 3.58333 4.8916 3.58333 4.53327C3.58333 4.17493 3.87416 3.88327 4.23333 3.88327ZM4.23333 8.94988H10.7667C11.125 8.94988 11.4167 8.65822 11.4167 8.29988C11.4167 7.94155 11.125 7.64905 10.7667 7.64905H4.23333C3.87416 7.64905 3.58333 7.94155 3.58333 8.29988C3.58333 8.65822 3.87416 8.94988 4.23333 8.94988ZM4.23333 12.7583H10.7667C11.0992 12.7249 11.35 12.4408 11.35 12.1083C11.35 11.7666 11.0992 11.4833 10.7667 11.4499H4.23333C3.98333 11.4249 3.74166 11.5416 3.60833 11.7583C3.475 11.9666 3.475 12.2416 3.60833 12.4583C3.74166 12.6666 3.98333 12.7916 4.23333 12.7583Z"/>
</svg>
