<svg width="18" height="16" viewBox="0 0 18 16" fill="currentColor" xmlns="http://www.w3.org/2000/svg">
    <path fill="currentColor" d="M16.2488 6.7025C16.1263 6.3525 15.7938 6.125 15.4 6.125H9.10875C8.70625 6.125 8.3825 6.3525 8.25125 6.7025L7 10.2987L7.00875 15.12C7.00875 15.4525 7.28 15.75 7.6125 15.75H8.155C8.4875 15.75 8.75 15.4175 8.75 15.085V14H15.75V15.085C15.75 15.4175 16.0213 15.75 16.3538 15.75H16.8875C17.22 15.75 17.4913 15.4525 17.4913 15.12L17.5 13.9212V10.2987L16.2488 6.7025ZM9.10875 7H15.4L16.3013 9.625H8.2075L9.10875 7ZM8.75 12.25C8.26875 12.25 7.875 11.8562 7.875 11.375C7.875 10.8938 8.26875 10.5 8.75 10.5C9.23125 10.5 9.625 10.8938 9.625 11.375C9.625 11.8562 9.23125 12.25 8.75 12.25ZM15.75 12.25C15.2688 12.25 14.875 11.8562 14.875 11.375C14.875 10.8938 15.2688 10.5 15.75 10.5C16.2313 10.5 16.625 10.8938 16.625 11.375C16.625 11.8562 16.2313 12.25 15.75 12.25Z"
          />
    <path fill="currentColor" d="M10.5 5.25H11.375V0H4.375V4.375H0V15.75H0.875V5.25H5.25V0.875H10.5V5.25Z"/>
    <path fill="currentColor" d="M2.625 7H4.375V8.75H2.625V7ZM7 1.75H8.75V3.5H7V1.75ZM2.625 10.5H4.375V12.25H2.625V10.5ZM2.625 14H4.375V15.75H2.625V14Z"
          />
</svg>
